HIERARCHY
ROOT Hips
{
	OFFSET 0.000000 100.481300 0.000000
	CHANNELS 6 Xposition Yposition Zposition Xrotation Yrotation Zrotation
	JOINT Spine
	{
		OFFSET -0.279200 12.230698 -2.892100
		CHANNELS 3 Xrotation Yrotation Zrotation
		JOINT Spine1
		{
			OFFSET -0.325700 14.269203 -3.374200
			CHANNELS 3 Xrotation Yrotation Zrotation
			JOINT Spine2
			{
				OFFSET -0.372300 16.307602 -0.352600
				CHANNELS 3 Xrotation Yrotation Zrotation
				JOINT Neck
				{
					OFFSET -0.418800 17.814194 8.416900
					CHANNELS 3 Xrotation Yrotation Zrotation
					JOINT Head
					{
						OFFSET 0.000000 7.031097 3.806800
						CHANNELS 3 Xrotation Yrotation Zrotation
						JOINT HeadTop_End
						{
							OFFSET 0.000000 24.646606 12.978600
							CHANNELS 3 Xrotation Yrotation Zrotation
							End Site
							{
								OFFSET 0.000000 27.854965 0.000000
							}
						}
					}
				}
				JOINT LeftShoulder
				{
					OFFSET 16.952999 14.495407 -7.737500
					CHANNELS 3 Xrotation Yrotation Zrotation
					JOINT LeftArm
					{
						OFFSET 9.308998 -2.777710 0.208600
						CHANNELS 3 Xrotation Yrotation Zrotation
						JOINT LeftForeArm
						{
							OFFSET 29.972298 0.000000 0.000000
							CHANNELS 3 Xrotation Yrotation Zrotation
							JOINT LeftHand
							{
								OFFSET 26.026505 0.000000 0.000000
								CHANNELS 3 Xrotation Yrotation Zrotation
								JOINT LeftHandThumb1
								{
									OFFSET 12.240501 -7.147949 9.207150
									CHANNELS 3 Xrotation Yrotation Zrotation
									JOINT LeftHandThumb2
									{
										OFFSET 4.138618 -2.389435 2.389433
										CHANNELS 3 Xrotation Yrotation Zrotation
										JOINT LeftHandThumb3
										{
											OFFSET 2.726913 -1.574387 1.574386
											CHANNELS 3 Xrotation Yrotation Zrotation
											JOINT LeftHandThumb4
											{
												OFFSET 3.941010 -2.275345 2.275342
												CHANNELS 3 Xrotation Yrotation Zrotation
												End Site
												{
													OFFSET -0.005798 5.087799 0.009903
												}
											}
										}
									}
								}
								JOINT LeftHandIndex1
								{
									OFFSET 24.424698 -1.985611 5.953459
									CHANNELS 3 Xrotation Yrotation Zrotation
									JOINT LeftHandIndex2
									{
										OFFSET 6.426697 0.000000 0.000000
										CHANNELS 3 Xrotation Yrotation Zrotation
										JOINT LeftHandIndex3
										{
											OFFSET 5.337898 0.000000 0.000000
											CHANNELS 3 Xrotation Yrotation Zrotation
											JOINT LeftHandIndex4
											{
												OFFSET 4.409401 0.000000 0.000000
												CHANNELS 3 Xrotation Yrotation Zrotation
												End Site
												{
													OFFSET 0.000000 4.409363 0.014373
												}
											}
										}
									}
								}
								JOINT LeftHandMiddle1
								{
									OFFSET 23.810104 0.000000 0.000000
									CHANNELS 3 Xrotation Yrotation Zrotation
									JOINT LeftHandMiddle2
									{
										OFFSET 7.176498 0.000000 0.000000
										CHANNELS 3 Xrotation Yrotation Zrotation
										JOINT LeftHandMiddle3
										{
											OFFSET 6.774902 0.000000 0.000000
											CHANNELS 3 Xrotation Yrotation Zrotation
											JOINT LeftHandMiddle4
											{
												OFFSET 5.403328 0.000000 0.000000
												CHANNELS 3 Xrotation Yrotation Zrotation
												End Site
												{
													OFFSET -0.027702 5.403244 0.017414
												}
											}
										}
									}
								}
								JOINT LeftHandRing1
								{
									OFFSET 22.908401 -0.839279 -6.020567
									CHANNELS 3 Xrotation Yrotation Zrotation
									JOINT LeftHandRing2
									{
										OFFSET 6.337502 0.000000 0.000000
										CHANNELS 3 Xrotation Yrotation Zrotation
										JOINT LeftHandRing3
										{
											OFFSET 5.779297 0.000000 0.000000
											CHANNELS 3 Xrotation Yrotation Zrotation
											JOINT LeftHandRing4
											{
												OFFSET 4.965698 0.000000 0.000000
												CHANNELS 3 Xrotation Yrotation Zrotation
												End Site
												{
													OFFSET 0.000000 4.965668 0.016186
												}
											}
										}
									}
								}
								JOINT LeftHandPinky1
								{
									OFFSET 20.037003 -1.530319 -10.950146
									CHANNELS 3 Xrotation Yrotation Zrotation
									JOINT LeftHandPinky2
									{
										OFFSET 5.254700 0.000000 0.000000
										CHANNELS 3 Xrotation Yrotation Zrotation
										JOINT LeftHandPinky3
										{
											OFFSET 4.810204 0.000000 0.000000
											CHANNELS 3 Xrotation Yrotation Zrotation
											JOINT LeftHandPinky4
											{
												OFFSET 3.647202 0.000000 0.000000
												CHANNELS 3 Xrotation Yrotation Zrotation
												End Site
												{
													OFFSET 0.000000 3.647186 0.011889
												}
											}
										}
									}
								}
							}
						}
					}
				}
				JOINT RightShoulder
				{
					OFFSET -15.141001 14.495407 -7.737500
					CHANNELS 3 Xrotation Yrotation Zrotation
					JOINT RightArm
					{
						OFFSET -9.308998 -2.777710 0.208500
						CHANNELS 3 Xrotation Yrotation Zrotation
						JOINT RightForeArm
						{
							OFFSET -29.972300 0.000000 0.000000
							CHANNELS 3 Xrotation Yrotation Zrotation
							JOINT RightHand
							{
								OFFSET -26.026505 0.000000 0.000000
								CHANNELS 3 Xrotation Yrotation Zrotation
								JOINT RightHandThumb1
								{
									OFFSET -12.240601 -7.148026 9.207092
									CHANNELS 3 Xrotation Yrotation Zrotation
									JOINT RightHandThumb2
									{
										OFFSET -4.138618 -2.389435 2.389433
										CHANNELS 3 Xrotation Yrotation Zrotation
										JOINT RightHandThumb3
										{
											OFFSET -2.726974 -1.574417 1.574421
											CHANNELS 3 Xrotation Yrotation Zrotation
											JOINT RightHandThumb4
											{
												OFFSET -3.941010 -2.275345 2.275343
												CHANNELS 3 Xrotation Yrotation Zrotation
												End Site
												{
													OFFSET 0.005814 5.087799 0.009927
												}
											}
										}
									}
								}
								JOINT RightHandIndex1
								{
									OFFSET -24.424698 -1.985657 5.953444
									CHANNELS 3 Xrotation Yrotation Zrotation
									JOINT RightHandIndex2
									{
										OFFSET -6.426697 0.000000 0.000000
										CHANNELS 3 Xrotation Yrotation Zrotation
										JOINT RightHandIndex3
										{
											OFFSET -5.337898 0.000000 0.000000
											CHANNELS 3 Xrotation Yrotation Zrotation
											JOINT RightHandIndex4
											{
												OFFSET -4.409401 0.000000 0.000000
												CHANNELS 3 Xrotation Yrotation Zrotation
												End Site
												{
													OFFSET 0.000000 4.409363 0.014408
												}
											}
										}
									}
								}
								JOINT RightHandMiddle1
								{
									OFFSET -23.810097 0.000000 0.000000
									CHANNELS 3 Xrotation Yrotation Zrotation
									JOINT RightHandMiddle2
									{
										OFFSET -7.176498 0.000000 0.000000
										CHANNELS 3 Xrotation Yrotation Zrotation
										JOINT RightHandMiddle3
										{
											OFFSET -6.774902 0.000000 0.000000
											CHANNELS 3 Xrotation Yrotation Zrotation
											JOINT RightHandMiddle4
											{
												OFFSET -5.403328 0.000000 0.000000
												CHANNELS 3 Xrotation Yrotation Zrotation
												End Site
												{
													OFFSET 0.027702 5.403244 0.017457
												}
											}
										}
									}
								}
								JOINT RightHandRing1
								{
									OFFSET -22.908302 -0.839325 -6.020576
									CHANNELS 3 Xrotation Yrotation Zrotation
									JOINT RightHandRing2
									{
										OFFSET -6.337502 0.000000 0.000000
										CHANNELS 3 Xrotation Yrotation Zrotation
										JOINT RightHandRing3
										{
											OFFSET -5.779297 0.000000 0.000000
											CHANNELS 3 Xrotation Yrotation Zrotation
											JOINT RightHandRing4
											{
												OFFSET -4.965698 0.000000 0.000000
												CHANNELS 3 Xrotation Yrotation Zrotation
												End Site
												{
													OFFSET 0.000000 4.965668 0.016226
												}
											}
										}
									}
								}
								JOINT RightHandPinky1
								{
									OFFSET -20.037003 -1.530334 -10.950259
									CHANNELS 3 Xrotation Yrotation Zrotation
									JOINT RightHandPinky2
									{
										OFFSET -5.254700 0.000000 0.000000
										CHANNELS 3 Xrotation Yrotation Zrotation
										JOINT RightHandPinky3
										{
											OFFSET -4.810204 0.000000 0.000000
											CHANNELS 3 Xrotation Yrotation Zrotation
											JOINT RightHandPinky4
											{
												OFFSET -3.647202 0.000000 0.000000
												CHANNELS 3 Xrotation Yrotation Zrotation
												End Site
												{
													OFFSET 0.000000 3.647186 0.011917
												}
											}
										}
									}
								}
							}
						}
					}
				}
			}
		}
	}
	JOINT LeftUpLeg
	{
		OFFSET 15.427100 -6.655098 0.678600
		CHANNELS 3 Xrotation Yrotation Zrotation
		JOINT LeftLeg
		{
			OFFSET 4.081073 -39.591068 13.024000
			CHANNELS 3 Xrotation Yrotation Zrotation
			JOINT LeftFoot
			{
				OFFSET -4.081074 -37.707932 -15.979700
				CHANNELS 3 Xrotation Yrotation Zrotation
				JOINT LeftToeBase
				{
					OFFSET 5.346399 -15.068900 20.645000
					CHANNELS 3 Xrotation Yrotation Zrotation
					JOINT LeftToe_End
					{
						OFFSET 2.754700 0.931300 11.300900
						CHANNELS 3 Xrotation Yrotation Zrotation
						End Site
						{
							OFFSET 0.000000 11.669021 0.000000
						}
					}
				}
			}
		}
	}
	JOINT RightUpLeg
	{
		OFFSET -15.569500 -6.655098 0.678600
		CHANNELS 3 Xrotation Yrotation Zrotation
		JOINT RightLeg
		{
			OFFSET -4.081825 -39.591045 13.023800
			CHANNELS 3 Xrotation Yrotation Zrotation
			JOINT RightFoot
			{
				OFFSET 4.081824 -37.707954 -15.979600
				CHANNELS 3 Xrotation Yrotation Zrotation
				JOINT RightToeBase
				{
					OFFSET -5.346400 -15.068900 20.645000
					CHANNELS 3 Xrotation Yrotation Zrotation
					JOINT RightToe_End
					{
						OFFSET -2.754700 0.931300 11.300900
						CHANNELS 3 Xrotation Yrotation Zrotation
						End Site
						{
							OFFSET 0.000000 11.669021 0.000000
						}
					}
				}
			}
		}
	}
}
MOTION
Frames: 4
Frame Time: 0.033333
-0.622212 73.635498 2.371424 19.788859 -9.723670 6.692791 8.486614 0.598845 0.051708 16.965623 1.557863 0.480024 16.965638 1.557862 0.480027 -4.088241 -0.574490 -4.572706 -10.709547 -8.599376 8.314458 0.000001 0.000000 0.000001 0.932506 -18.227804 -7.048087 -76.577629 -1.746139 -53.312697 0.256872 -76.290952 0.263064 9.814966 -2.713465 2.575548 -9.966784 1.055824 4.311171 5.535825 13.225652 2.234650 0.000008 -0.000002 0.000005 -0.000002 0.000001 0.000000 3.152861 18.815629 -17.124459 0.590165 1.282790 -62.409829 -0.000000 -0.000001 -0.000000 -0.000001 -0.000004 -0.000000 2.349484 11.282617 -21.723019 -2.068272 -3.381365 -55.966785 -0.000000 0.000003 0.000001 0.000000 -0.000000 0.000000 -0.342590 6.773516 -24.914459 -2.331595 -4.682701 -58.617763 0.000003 0.000005 0.000001 -0.000000 0.000003 0.000000 -2.638073 0.790688 -18.032049 -4.233800 -9.043459 -68.305450 -0.000000 0.000001 -0.000000 -0.000000 0.000001 0.000000 -1.481128 21.783404 22.306199 -13.797820 31.658050 27.841229 -0.285338 106.077680 0.313581 18.706461 -1.338474 -28.107053 -13.266612 -6.430526 -7.934203 12.526014 -26.571473 -1.146470 -0.000007 0.000004 0.000016 0.000001 -0.000002 0.000000 2.897064 -20.355777 57.558161 1.247106 -2.368000 62.391743 -0.000001 0.000001 -0.000003 -0.000001 -0.000000 -0.000001 -0.389557 -9.857827 61.656992 -1.569761 2.441955 55.999041 -0.000001 0.000005 -0.000007 0.000000 0.000000 0.000003 -2.117330 -3.079300 65.119413 -0.879081 3.669073 30.991328 -0.000000 -0.000000 -0.000000 -0.000000 -0.000000 -0.000000 -3.814457 5.496402 58.243475 -1.032673 7.313802 26.432779 0.000003 -0.000000 0.000001 0.000002 0.000000 -0.000000 -60.567782 -2.442669 25.231161 48.286268 -2.456884 -3.554818 -6.090083 -5.960424 -19.622346 -6.066206 -0.036399 0.075832 -0.000000 0.000000 0.000000 -58.412092 10.710876 -24.920353 54.890204 4.251347 3.572556 -9.415201 -12.318264 18.727569 -1.858377 -0.181533 0.436460 0.000000 -0.000001 -0.000000 
-0.745566 73.664490 2.378376 19.892374 -9.600784 6.860096 8.451792 0.572432 0.017548 16.896163 1.522711 0.438979 16.896179 1.522712 0.438985 -4.236183 -0.546528 -4.572202 -10.646317 -8.464423 8.216040 -0.000002 -0.000001 0.000000 0.929460 -18.146990 -7.057007 -76.460286 -1.789325 -53.348029 0.250943 -76.060584 0.257773 9.793630 -2.943765 2.533969 -9.984297 0.076629 4.978791 5.535829 13.225660 2.234669 0.000005 -0.000002 0.000003 -0.000000 -0.000001 -0.000001 3.152867 18.815648 -17.124456 0.590157 1.282783 -62.409850 0.000002 0.000001 0.000000 0.000001 -0.000001 0.000001 2.349498 11.282625 -21.722997 -2.068247 -3.381355 -55.966772 -0.000000 0.000007 -0.000000 -0.000001 0.000002 0.000000 -0.342580 6.773510 -24.914445 -2.331596 -4.682718 -58.617763 0.000003 0.000002 0.000002 -0.000000 -0.000001 0.000000 -2.638059 0.790687 -18.032048 -4.233805 -9.043477 -68.305457 0.000000 -0.000000 -0.000000 -0.000001 -0.000000 0.000000 -1.505182 21.793102 22.445091 -13.602372 31.625422 27.981408 -0.280043 106.372663 0.308468 18.473888 -1.821215 -27.131111 -13.266614 -6.430517 -7.934189 12.525995 -26.571475 -1.146468 -0.000005 0.000006 0.000015 0.000003 0.000000 0.000001 2.897059 -20.355801 57.558168 1.247114 -2.368009 62.391770 -0.000003 0.000002 -0.000001 0.000001 0.000002 -0.000004 -0.389561 -9.857841 61.656985 -1.569786 2.441948 55.999031 -0.000000 0.000004 -0.000004 0.000000 -0.000001 0.000003 -2.117341 -3.079294 65.119420 -0.879085 3.669065 30.991328 0.000000 -0.000001 -0.000001 0.000001 0.000000 -0.000001 -3.814464 5.496410 58.243482 -1.032678 7.313801 26.432765 -0.000000 0.000000 -0.000001 -0.000001 0.000000 -0.000001 -60.568799 -2.318584 25.134731 48.065387 -2.422713 -3.541628 -5.982097 -5.962068 -19.696659 -6.205021 -0.036650 0.076117 -0.000000 -0.000000 -0.000000 -58.479397 10.857136 -24.960899 54.997954 4.245119 3.574351 -9.513106 -12.485556 18.679575 -2.202707 -0.180480 0.434531 -0.000000 0.000001 -0.000000 
-0.927061 73.691650 2.401608 20.031138 -9.430857 7.057284 8.391082 0.549283 -0.013106 16.774641 1.502794 0.414793 16.774642 1.502796 0.414792 -4.492794 -0.498151 -4.557821 -10.534150 -8.210884 8.039911 -0.000001 0.000000 -0.000001 0.921220 -17.978200 -7.090015 -76.157606 -1.883258 -53.390083 0.245109 -75.681385 0.253363 9.774249 -3.400727 2.296187 -9.934531 -1.929220 6.498061 5.535833 13.225646 2.234659 0.000009 -0.000003 0.000003 0.000000 -0.000000 -0.000001 3.152864 18.815643 -17.124452 0.590156 1.282802 -62.409856 0.000001 0.000003 -0.000001 0.000000 0.000001 0.000001 2.349491 11.282625 -21.723010 -2.068268 -3.381365 -55.966795 0.000000 0.000006 0.000002 0.000000 0.000004 -0.000001 -0.342586 6.773508 -24.914457 -2.331600 -4.682709 -58.617749 0.000003 0.000004 0.000001 0.000000 0.000001 -0.000000 -2.638082 0.790693 -18.032053 -4.233794 -9.043463 -68.305457 -0.000000 0.000000 -0.000001 -0.000001 -0.000001 0.000000 -1.523465 21.681445 22.636094 -12.562860 31.873003 28.073893 -0.248380 107.083337 0.278524 20.070453 -3.794743 -26.902595 -13.266629 -6.430539 -7.934187 12.526009 -26.571478 -1.146486 -0.000008 0.000007 0.000015 -0.000003 0.000000 -0.000000 2.897054 -20.355803 57.558175 1.247130 -2.367996 62.391770 -0.000001 0.000001 0.000002 -0.000001 0.000000 -0.000002 -0.389560 -9.857814 61.656985 -1.569790 2.441940 55.999048 -0.000000 0.000006 -0.000005 0.000000 0.000000 -0.000001 -2.117330 -3.079284 65.119420 -0.879105 3.669058 30.991317 0.000000 0.000000 -0.000001 -0.000000 0.000001 -0.000001 -3.814466 5.496408 58.243475 -1.032660 7.313811 26.432764 0.000002 0.000000 -0.000000 -0.000002 0.000000 -0.000000 -60.563540 -2.199534 25.040308 47.782982 -2.381583 -3.525528 -5.870603 -6.010551 -19.829952 -6.451379 -0.037096 0.076636 -0.000001 0.000000 0.000000 -58.540281 11.066754 -24.981072 55.164310 4.239321 3.579271 -9.674041 -12.786202 18.625243 -2.590502 -0.179266 0.432370 -0.000000 -0.000000 -0.000000 
-1.163334 73.720467 2.463778 20.095270 -9.306144 7.240668 8.326124 0.545315 -0.038574 16.644322 1.525240 0.402579 16.644326 1.525238 0.402585 -4.833980 -0.417488 -4.544328 -10.410363 -7.781128 7.754821 -0.000003 0.000000 -0.000001 0.908518 -17.726544 -7.144151 -75.630200 -2.056981 -53.282511 0.245133 -75.159859 0.256073 9.404536 -4.015383 1.661321 -9.757799 -4.148273 8.242414 5.535828 13.225678 2.234679 0.000003 -0.000002 0.000003 -0.000003 -0.000000 -0.000001 3.152865 18.815650 -17.124457 0.590165 1.282786 -62.409850 0.000000 0.000002 0.000000 0.000000 0.000002 0.000001 2.349504 11.282614 -21.723007 -2.068282 -3.381350 -55.966799 -0.000000 0.000005 0.000000 0.000000 -0.000003 -0.000000 -0.342589 6.773510 -24.914447 -2.331587 -4.682726 -58.617749 0.000003 0.000005 0.000001 0.000000 0.000000 0.000000 -2.638078 0.790675 -18.032060 -4.233776 -9.043447 -68.305450 0.000001 -0.000001 -0.000000 0.000000 0.000001 -0.000001 -1.516755 21.409879 22.794240 -10.209205 32.865262 27.741908 -0.184123 108.076207 0.218689 24.572372 -6.850495 -29.431125 -13.266606 -6.430520 -7.934183 12.526001 -26.571482 -1.146486 -0.000005 0.000007 0.000016 0.000000 -0.000000 -0.000000 2.897081 -20.355803 57.558168 1.247118 -2.367990 62.391763 0.000003 -0.000000 0.000002 0.000003 0.000003 -0.000004 -0.389534 -9.857830 61.656992 -1.569758 2.441970 55.999027 -0.000004 0.000005 -0.000010 -0.000001 0.000002 -0.000007 -2.117322 -3.079288 65.119433 -0.879052 3.669071 30.991321 -0.000000 -0.000002 0.000001 0.000000 -0.000001 -0.000000 -3.814452 5.496404 58.243475 -1.032668 7.313806 26.432767 -0.000001 0.000002 0.000000 -0.000002 0.000001 -0.000000 -60.383749 -2.129807 24.997504 47.513425 -2.351304 -3.510731 -5.922023 -6.026378 -20.045202 -6.619931 -0.037405 0.076978 0.000000 -0.000000 0.000000 -58.427986 11.421912 -24.864351 55.367320 4.232304 3.585813 -9.918073 -13.281348 18.590423 -2.938858 -0.178177 0.430420 0.000000 0.000001 -0.000000 
